HIERARCHY
ROOT joint_Root
{
	OFFSET 0.0 0.0 0.0
	CHANNELS 6 Xposition Yposition Zposition Zrotation Xrotation Yrotation 
	JOINT Hips
	{
		OFFSET -17.1583 93.1646 452.98
		CHANNELS 6 Xposition Yposition Zposition Zrotation Xrotation Yrotation 
		JOINT Spine
		{
			OFFSET 15.7357 0.0 0.0
			CHANNELS 6 Xposition Yposition Zposition Zrotation Xrotation Yrotation 
			JOINT Chest
			{
				OFFSET 8.98455 -0.406207 0.0
				CHANNELS 6 Xposition Yposition Zposition Zrotation Xrotation Yrotation 
				JOINT Neck
				{
					OFFSET 16.3773 0.0 0.0
					CHANNELS 6 Xposition Yposition Zposition Zrotation Xrotation Yrotation 
					JOINT Head
					{
						OFFSET 6.45672 0.0 0.0
						CHANNELS 6 Xposition Yposition Zposition Zrotation Xrotation Yrotation 
						End Site
						{
							OFFSET 0.0 0.0 0.0
						}
					}
				}
				JOINT Shoulder_L
				{
					OFFSET 12.9942 -0.242716 4.98039
					CHANNELS 6 Xposition Yposition Zposition Zrotation Xrotation Yrotation 
					JOINT UpperArm_L
					{
						OFFSET 5.34809 0.0 0.0
						CHANNELS 6 Xposition Yposition Zposition Zrotation Xrotation Yrotation 
						JOINT LowerArm_L
						{
							OFFSET 24.3286 1.87007e-05 0.0
							CHANNELS 6 Xposition Yposition Zposition Zrotation Xrotation Yrotation 
							JOINT Hand_L
							{
								OFFSET 22.2916 0.0 0.0
								CHANNELS 6 Xposition Yposition Zposition Zrotation Xrotation Yrotation 
								End Site
								{
									OFFSET 0.0 0.0 0.0
								}
							}
						}
					}
				}
				JOINT Shoulder_R
				{
					OFFSET 12.9945 -0.242716 -4.98039
					CHANNELS 6 Xposition Yposition Zposition Zrotation Xrotation Yrotation 
					JOINT UpperArm_R
					{
						OFFSET -5.34813 0.0 0.0
						CHANNELS 6 Xposition Yposition Zposition Zrotation Xrotation Yrotation 
						JOINT LowerArm_R
						{
							OFFSET -24.3289 0.000322201 0.0
							CHANNELS 6 Xposition Yposition Zposition Zrotation Xrotation Yrotation 
							JOINT Hand_R
							{
								OFFSET -22.2915 -0.000108084 0.0
								CHANNELS 6 Xposition Yposition Zposition Zrotation Xrotation Yrotation 
								End Site
								{
									OFFSET 0.0 0.0 0.0
								}
							}
						}
					}
				}
			}
		}
		JOINT UpperLeg_L
		{
			OFFSET -2.19248 -6.46944 0.0
			CHANNELS 6 Xposition Yposition Zposition Zrotation Xrotation Yrotation 
			JOINT LowerLeg_L
			{
				OFFSET 39.0811 0.0 -1.23785e-05
				CHANNELS 6 Xposition Yposition Zposition Zrotation Xrotation Yrotation 
				JOINT Foot_L
				{
					OFFSET 40.9854 0.0 -1.26872e-05
					CHANNELS 6 Xposition Yposition Zposition Zrotation Xrotation Yrotation 
					JOINT Toes_L
					{
						OFFSET 11.7543 0.0 0.0
						CHANNELS 6 Xposition Yposition Zposition Zrotation Xrotation Yrotation 
						End Site
						{
							OFFSET 0.0 0.0 0.0
						}
					}
				}
			}
		}
		JOINT UpperLeg_R
		{
			OFFSET -2.19251 6.46944 0.0
			CHANNELS 6 Xposition Yposition Zposition Zrotation Xrotation Yrotation 
			JOINT LowerLeg_R
			{
				OFFSET -39.0811 -0.00228153 -0.0401928
				CHANNELS 6 Xposition Yposition Zposition Zrotation Xrotation Yrotation 
				JOINT Foot_R
				{
					OFFSET -40.9854 0.0 0.0
					CHANNELS 6 Xposition Yposition Zposition Zrotation Xrotation Yrotation 
					JOINT Toes_R
					{
						OFFSET -11.7543 0.0 0.0
						CHANNELS 6 Xposition Yposition Zposition Zrotation Xrotation Yrotation 
						End Site
						{
							OFFSET 0.0 0.0 0.0
						}
					}
				}
			}
		}
	}
}
MOTION
Frames:	4
Frame Time:	0.0333333
0.000000 0.000000 0.000000 0.000000 0.000000 -0.000000 -2.693400 92.877200 1.552810 87.463900 1.111780 -2.580870 15.735700 0.000005 -0.000001 91.557600 88.813300 -90.039400 8.984550 -0.406207 -0.000000 -5.390330 -0.109750 3.034100 16.377300 -0.000001 -0.000001 3.112900 0.930409 -1.992890 6.456720 -0.000001 -0.000000 4.889090 -0.146416 1.967540 12.994200 -0.242716 4.980390 -92.537800 7.753230 -71.812700 5.348090 -0.000007 -0.000001 -73.699800 27.610500 0.799636 24.328600 0.000019 0.000005 15.457700 28.444300 -30.138100 22.291600 -0.000001 0.000005 -5.766580 5.100130 5.110810 12.994500 -0.242716 -4.980390 88.328500 5.564010 -73.249400 -5.348130 -0.000001 -0.000004 -71.043800 31.930300 -2.607000 -24.328900 0.000322 -0.000009 2.878570 8.896380 -18.017700 -22.291500 -0.000108 -0.000004 0.201513 5.222490 2.148930 -2.192480 -6.469440 -0.000000 -175.480000 1.281380 -4.410000 39.081100 -0.000007 -0.000012 0.127110 -0.386725 18.195000 40.985400 -0.000006 -0.000013 -1.375670 8.219760 -71.318500 11.754300 -0.000000 0.000003 0.000264 0.163063 -9.963270 -2.192510 6.469440 -0.000001 -174.344000 8.390110 -178.927000 -39.081100 -0.002282 -0.040193 -0.000965 0.026716 9.154350 -40.985400 0.000008 0.000006 -2.588640 5.248900 -67.367200 -11.754300 -0.000006 -0.000006 -0.012217 0.287184 -4.901000
0.000000 0.000000 0.000000 0.000000 0.000000 -0.000000 -2.706650 92.890600 1.539950 87.450700 1.077050 -2.608400 15.735700 0.000005 -0.000001 91.464400 88.801400 -89.948600 8.984550 -0.406207 -0.000000 -5.366310 -0.112408 3.029260 16.377300 -0.000001 -0.000001 2.945900 0.934062 -2.079220 6.456720 -0.000001 -0.000000 4.600400 -0.193640 1.607000 12.994200 -0.242716 4.980390 -92.554900 7.790180 -71.778700 5.348090 -0.000007 -0.000001 -73.143900 27.180500 0.353920 24.328600 0.000019 0.000005 15.904100 28.373200 -30.946400 22.291600 -0.000001 0.000005 -5.825530 5.105560 4.985840 12.994500 -0.242716 -4.980390 88.334300 5.544620 -73.249800 -5.348130 -0.000001 -0.000004 -71.120200 31.883900 -2.581000 -24.328900 0.000322 -0.000009 2.851620 8.807590 -18.026700 -22.291500 -0.000108 -0.000004 0.152202 5.223340 2.127380 -2.192480 -6.469440 -0.000000 -175.434000 1.282910 -4.423510 39.081100 -0.000007 -0.000012 0.121336 -0.370309 18.142200 40.985400 -0.000006 -0.000013 -1.565960 8.221740 -71.254500 11.754300 -0.000000 0.000003 0.000101 0.165910 -9.847690 -2.192510 6.469440 -0.000001 -174.319000 8.311940 -178.924000 -39.081100 -0.002282 -0.040193 -0.001223 0.028569 9.074820 -40.985400 0.000008 0.000006 -2.577040 5.235270 -67.321700 -11.754300 -0.000006 -0.000006 -0.012302 0.287770 -4.877020
0.000000 0.000000 0.000000 0.000000 0.000000 -0.000000 -2.733280 92.887300 1.529190 87.433700 1.004210 -2.672580 15.735700 0.000005 -0.000001 91.824300 88.799700 -90.298200 8.984550 -0.406207 -0.000000 -5.363540 -0.098391 3.050410 16.377300 -0.000001 -0.000001 2.743760 0.966440 -2.241300 6.456720 -0.000001 -0.000000 4.326470 -0.251283 1.145830 12.994200 -0.242716 4.980390 -92.590700 7.892110 -71.761600 5.348090 -0.000007 -0.000001 -72.365400 26.440600 -0.126893 24.328600 0.000019 0.000005 16.618500 28.295200 -32.196600 22.291600 -0.000001 0.000005 -5.906370 5.123760 4.563440 12.994500 -0.242716 -4.980390 88.364300 5.458120 -73.289600 -5.348130 -0.000001 -0.000004 -71.220400 31.950600 -2.570050 -24.328900 0.000322 -0.000009 2.825900 8.718120 -18.044600 -22.291500 -0.000108 -0.000004 0.185441 5.222720 2.143190 -2.192480 -6.469440 -0.000000 -175.415000 1.286330 -4.517110 39.081100 -0.000007 -0.000012 0.122986 -0.374097 18.198700 40.985400 -0.000006 -0.000013 -1.601020 8.136710 -71.278100 11.754300 -0.000000 0.000003 0.000051 0.166759 -9.813180 -2.192510 6.469440 -0.000001 -174.282000 8.224220 -178.973000 -39.081100 -0.002282 -0.040193 -0.001108 0.028010 9.023550 -40.985400 0.000008 0.000006 -2.626590 5.232990 -67.263400 -11.754300 -0.000006 -0.000006 -0.012169 0.286854 -4.914530
0.000000 0.000000 0.000000 0.000000 0.000000 -0.000000 -2.763270 92.895900 1.512900 87.407700 0.967040 -2.758740 15.735700 0.000005 -0.000001 92.398700 88.804600 -90.861500 8.984550 -0.406207 -0.000000 -5.374500 -0.076221 3.073940 16.377300 -0.000001 -0.000001 2.533320 1.009550 -2.460870 6.456720 -0.000001 -0.000000 3.949740 -0.362059 0.557647 12.994200 -0.242716 4.980390 -92.601000 7.922010 -71.757600 5.348090 -0.000007 -0.000001 -71.531700 25.446300 -0.638292 24.328600 0.000019 0.000005 16.948500 27.325200 -33.579800 22.291600 -0.000001 0.000005 -5.721930 5.123960 4.559360 12.994500 -0.242716 -4.980390 88.367900 5.439930 -73.272200 -5.348130 -0.000001 -0.000004 -71.232900 31.964800 -2.566890 -24.328900 0.000322 -0.000009 2.823850 8.689430 -18.087600 -22.291500 -0.000108 -0.000004 0.205114 5.221940 2.163100 -2.192480 -6.469440 -0.000000 -175.341000 1.206120 -4.604600 39.081100 -0.000007 -0.000012 0.117556 -0.358304 18.164300 40.985400 -0.000006 -0.000013 -1.752130 8.184340 -71.150800 11.754300 -0.000000 0.000003 0.000241 0.163463 -9.947040 -2.192510 6.469440 -0.000001 -174.212000 8.185820 -179.052000 -39.081100 -0.002282 -0.040193 -0.000986 0.027391 8.975280 -40.985400 0.000008 0.000006 -2.534680 5.220180 -67.222100 -11.754300 -0.000006 -0.000006 -0.012118 0.286506 -4.928800
